<svg xmlns="http://www.w3.org/2000/svg" xmlns:xlink="http://www.w3.org/1999/xlink" width="1024" zoomAndPan="magnify" viewBox="0 0 768 767.999994" height="1024" preserveAspectRatio="xMidYMid meet" version="1.0"><defs><clipPath id="ecc01ab18e"><path d="M 230.398438 230.398438 L 537.898438 230.398438 L 537.898438 537.898438 L 230.398438 537.898438 Z M 230.398438 230.398438 " clip-rule="nonzero"/></clipPath></defs><g clip-path="url(#ecc01ab18e)"><path fill="#cb6ce6" d="M 384.222656 230.398438 C 381.703125 230.402344 379.1875 230.464844 376.675781 230.585938 C 374.164062 230.710938 371.652344 230.898438 369.148438 231.144531 C 366.644531 231.394531 364.148438 231.703125 361.660156 232.070312 C 359.171875 232.441406 356.691406 232.875 354.222656 233.363281 C 351.757812 233.855469 349.300781 234.410156 346.859375 235.019531 C 344.417969 235.632812 341.996094 236.304688 339.585938 237.035156 C 337.179688 237.769531 334.792969 238.558594 332.421875 239.40625 C 330.054688 240.253906 327.707031 241.160156 325.382812 242.125 C 323.058594 243.089844 320.757812 244.109375 318.484375 245.183594 C 316.207031 246.261719 313.960938 247.394531 311.742188 248.582031 C 309.523438 249.769531 307.335938 251.007812 305.175781 252.304688 C 303.019531 253.597656 300.894531 254.945312 298.804688 256.34375 C 296.710938 257.742188 294.65625 259.191406 292.632812 260.691406 C 290.613281 262.191406 288.628906 263.738281 286.6875 265.335938 C 284.742188 266.933594 282.835938 268.578125 280.972656 270.265625 C 279.109375 271.957031 277.285156 273.691406 275.507812 275.472656 C 273.730469 277.253906 271.996094 279.074219 270.304688 280.941406 C 268.617188 282.804688 266.972656 284.710938 265.378906 286.65625 C 263.78125 288.601562 262.234375 290.585938 260.738281 292.609375 C 259.238281 294.628906 257.789062 296.6875 256.394531 298.78125 C 254.996094 300.871094 253.652344 303 252.359375 305.15625 C 251.066406 307.316406 249.824219 309.503906 248.640625 311.726562 C 247.453125 313.945312 246.324219 316.191406 245.25 318.46875 C 244.171875 320.742188 243.15625 323.042969 242.191406 325.367188 C 241.230469 327.695312 240.324219 330.039062 239.476562 332.410156 C 238.632812 334.78125 237.84375 337.167969 237.113281 339.578125 C 236.382812 341.984375 235.714844 344.410156 235.101562 346.851562 C 234.492188 349.292969 233.941406 351.746094 233.453125 354.214844 C 232.960938 356.683594 232.53125 359.164062 232.164062 361.652344 C 231.796875 364.140625 231.488281 366.640625 231.242188 369.144531 C 230.996094 371.648438 230.8125 374.15625 230.6875 376.671875 C 230.566406 379.183594 230.503906 381.699219 230.507812 384.214844 C 230.507812 386.730469 230.570312 389.246094 230.695312 391.757812 C 230.816406 394.273438 231.003906 396.78125 231.25 399.285156 C 231.5 401.789062 231.808594 404.289062 232.175781 406.777344 C 232.546875 409.265625 232.976562 411.742188 233.46875 414.210938 C 233.960938 416.679688 234.511719 419.132812 235.125 421.574219 C 235.738281 424.015625 236.410156 426.441406 237.140625 428.847656 C 237.871094 431.257812 238.660156 433.644531 239.511719 436.015625 C 240.359375 438.382812 241.265625 440.730469 242.230469 443.054688 C 243.191406 445.378906 244.210938 447.679688 245.289062 449.953125 C 246.367188 452.226562 247.496094 454.472656 248.683594 456.691406 C 249.871094 458.914062 251.113281 461.101562 252.40625 463.257812 C 253.699219 465.417969 255.046875 467.542969 256.445312 469.632812 C 257.84375 471.726562 259.292969 473.78125 260.792969 475.804688 C 262.292969 477.824219 263.839844 479.808594 265.4375 481.75 C 267.035156 483.695312 268.679688 485.601562 270.371094 487.464844 C 272.058594 489.328125 273.796875 491.148438 275.574219 492.929688 C 277.355469 494.707031 279.175781 496.441406 281.042969 498.132812 C 282.90625 499.820312 284.8125 501.464844 286.757812 503.058594 C 288.703125 504.65625 290.6875 506.203125 292.710938 507.703125 C 294.730469 509.199219 296.789062 510.648438 298.882812 512.046875 C 300.972656 513.441406 303.101562 514.789062 305.257812 516.082031 C 307.417969 517.375 309.605469 518.613281 311.828125 519.800781 C 314.046875 520.984375 316.292969 522.113281 318.570312 523.191406 C 320.84375 524.265625 323.144531 525.285156 325.46875 526.246094 C 327.792969 527.210938 330.140625 528.113281 332.511719 528.960938 C 334.878906 529.808594 337.269531 530.597656 339.679688 531.328125 C 342.085938 532.054688 344.511719 532.726562 346.953125 533.335938 C 349.394531 533.949219 351.847656 534.5 354.316406 534.988281 C 356.785156 535.480469 359.261719 535.910156 361.753906 536.277344 C 364.242188 536.644531 366.738281 536.953125 369.242188 537.199219 C 371.746094 537.445312 374.257812 537.628906 376.769531 537.753906 C 379.285156 537.875 381.796875 537.9375 384.316406 537.933594 C 386.832031 537.933594 389.347656 537.871094 391.859375 537.75 C 394.375 537.625 396.882812 537.4375 399.386719 537.191406 C 401.890625 536.945312 404.386719 536.636719 406.875 536.265625 C 409.367188 535.894531 411.84375 535.464844 414.3125 534.972656 C 416.78125 534.480469 419.234375 533.929688 421.675781 533.316406 C 424.117188 532.707031 426.539062 532.035156 428.949219 531.300781 C 431.355469 530.570312 433.746094 529.78125 436.113281 528.933594 C 438.484375 528.085938 440.832031 527.179688 443.15625 526.214844 C 445.480469 525.25 447.777344 524.230469 450.054688 523.15625 C 452.328125 522.078125 454.574219 520.945312 456.792969 519.761719 C 459.011719 518.574219 461.203125 517.332031 463.359375 516.039062 C 465.519531 514.742188 467.644531 513.398438 469.734375 512 C 471.828125 510.601562 473.882812 509.152344 475.90625 507.652344 C 477.925781 506.152344 479.90625 504.605469 481.851562 503.007812 C 483.796875 501.410156 485.703125 499.765625 487.566406 498.074219 C 489.429688 496.386719 491.253906 494.652344 493.03125 492.871094 C 494.808594 491.089844 496.542969 489.269531 498.234375 487.402344 C 499.921875 485.539062 501.566406 483.632812 503.160156 481.6875 C 504.757812 479.742188 506.304688 477.757812 507.804688 475.738281 C 509.300781 473.714844 510.75 471.65625 512.148438 469.566406 C 513.546875 467.472656 514.890625 465.347656 516.183594 463.1875 C 517.476562 461.027344 518.714844 458.839844 519.902344 456.621094 C 521.089844 454.402344 522.21875 452.152344 523.292969 449.878906 C 524.371094 447.601562 525.386719 445.304688 526.351562 442.976562 C 527.3125 440.652344 528.21875 438.304688 529.066406 435.9375 C 529.914062 433.566406 530.699219 431.175781 531.429688 428.769531 C 532.160156 426.359375 532.832031 423.9375 533.441406 421.496094 C 534.054688 419.054688 534.601562 416.597656 535.09375 414.128906 C 535.585938 411.664062 536.015625 409.183594 536.382812 406.695312 C 536.75 404.207031 537.058594 401.707031 537.304688 399.203125 C 537.550781 396.699219 537.734375 394.191406 537.859375 391.675781 C 537.980469 389.164062 538.042969 386.648438 538.042969 384.132812 C 538.035156 381.617188 537.96875 379.101562 537.839844 376.589844 C 537.714844 374.078125 537.523438 371.570312 537.273438 369.066406 C 537.019531 366.566406 536.707031 364.070312 536.335938 361.582031 C 535.960938 359.09375 535.527344 356.617188 535.03125 354.152344 C 534.539062 351.6875 533.984375 349.234375 533.367188 346.792969 C 532.753906 344.355469 532.078125 341.933594 531.347656 339.527344 C 530.613281 337.121094 529.820312 334.734375 528.96875 332.367188 C 528.121094 330 527.210938 327.652344 526.246094 325.332031 C 525.28125 323.007812 524.257812 320.710938 523.179688 318.4375 C 522.101562 316.164062 520.96875 313.917969 519.78125 311.703125 C 518.59375 309.484375 517.351562 307.296875 516.058594 305.140625 C 514.761719 302.984375 513.414062 300.863281 512.015625 298.769531 C 510.617188 296.679688 509.167969 294.625 507.667969 292.605469 C 506.167969 290.585938 504.621094 288.605469 503.023438 286.660156 C 501.425781 284.71875 499.785156 282.8125 498.09375 280.949219 C 496.402344 279.085938 494.667969 277.265625 492.890625 275.488281 C 491.109375 273.710938 489.289062 271.976562 487.425781 270.289062 C 485.5625 268.597656 483.65625 266.957031 481.710938 265.363281 C 479.769531 263.765625 477.785156 262.21875 475.765625 260.71875 C 473.746094 259.222656 471.6875 257.773438 469.597656 256.375 C 467.507812 254.976562 465.382812 253.632812 463.222656 252.339844 C 461.066406 251.042969 458.878906 249.804688 456.660156 248.617188 C 454.445312 247.429688 452.199219 246.300781 449.925781 245.222656 C 447.652344 244.144531 445.351562 243.125 443.03125 242.160156 C 440.707031 241.199219 438.359375 240.292969 435.992188 239.441406 C 433.625 238.59375 431.238281 237.800781 428.832031 237.070312 C 426.425781 236.339844 424 235.664062 421.5625 235.050781 C 419.121094 234.4375 416.667969 233.882812 414.203125 233.390625 C 411.738281 232.898438 409.257812 232.464844 406.769531 232.09375 C 404.285156 231.722656 401.789062 231.410156 399.285156 231.160156 C 396.78125 230.910156 394.273438 230.722656 391.761719 230.597656 C 389.25 230.46875 386.734375 230.402344 384.222656 230.398438 Z M 426.683594 513.875 C 420.011719 515.234375 417.554688 511.132812 417.554688 507.59375 C 417.554688 503.082031 417.75 488.75 417.75 470.898438 C 417.75 458.511719 413.539062 450.410156 408.726562 446.285156 C 438.359375 442.941406 469.554688 431.671875 469.554688 380.453125 C 469.605469 377.167969 469.34375 373.910156 468.769531 370.679688 C 468.195312 367.445312 467.320312 364.296875 466.144531 361.230469 C 464.96875 358.164062 463.515625 355.238281 461.777344 352.449219 C 460.042969 349.664062 458.058594 347.066406 455.824219 344.660156 C 457.1875 341.316406 461.890625 327.675781 454.53125 309.273438 C 454.53125 309.273438 443.351562 305.628906 417.855469 322.898438 C 412.425781 321.4375 406.921875 320.335938 401.347656 319.597656 C 395.769531 318.859375 390.171875 318.492188 384.546875 318.492188 C 378.925781 318.492188 373.324219 318.859375 367.75 319.597656 C 362.175781 320.335938 356.671875 321.4375 351.242188 322.898438 C 325.746094 305.84375 314.546875 309.273438 314.546875 309.273438 C 307.292969 327.605469 311.910156 341.246094 313.273438 344.660156 C 311.054688 347.074219 309.085938 349.675781 307.359375 352.46875 C 305.636719 355.257812 304.195312 358.183594 303.027344 361.25 C 301.859375 364.3125 300.992188 367.460938 300.425781 370.691406 C 299.855469 373.917969 299.597656 377.171875 299.648438 380.453125 C 299.648438 431.460938 330.648438 442.941406 360.265625 446.285156 C 356.441406 449.613281 352.90625 455.398438 351.738281 464.140625 C 344.074219 467.570312 324.949219 473.25 312.988281 453.152344 C 310.441406 449.117188 302.976562 439.316406 292.484375 439.421875 C 281.300781 439.617188 287.972656 445.792969 292.589844 448.269531 C 298.269531 451.507812 304.746094 463.273438 306.320312 467.09375 C 308.957031 474.648438 317.589844 488.960938 351.046875 482.789062 C 351.046875 493.96875 351.242188 504.476562 351.242188 507.558594 C 351.242188 511.09375 348.800781 515.003906 342.113281 513.839844 C 339.640625 513.011719 337.195312 512.109375 334.777344 511.140625 C 332.359375 510.167969 329.972656 509.125 327.613281 508.015625 C 325.257812 506.902344 322.933594 505.722656 320.648438 504.476562 C 318.359375 503.226562 316.109375 501.914062 313.898438 500.53125 C 311.6875 499.152344 309.519531 497.707031 307.394531 496.199219 C 305.269531 494.691406 303.1875 493.125 301.15625 491.496094 C 299.121094 489.867188 297.136719 488.175781 295.203125 486.429688 C 293.265625 484.683594 291.386719 482.882812 289.558594 481.027344 C 287.726562 479.171875 285.957031 477.261719 284.238281 475.300781 C 282.523438 473.339844 280.863281 471.328125 279.265625 469.273438 C 277.667969 467.214844 276.128906 465.109375 274.65625 462.960938 C 273.179688 460.8125 271.769531 458.625 270.421875 456.390625 C 269.074219 454.160156 267.796875 451.890625 266.582031 449.585938 C 265.371094 447.277344 264.226562 444.9375 263.148438 442.566406 C 262.074219 440.191406 261.066406 437.789062 260.132812 435.355469 C 259.199219 432.921875 258.335938 430.464844 257.546875 427.980469 C 256.753906 425.496094 256.039062 422.992188 255.394531 420.46875 C 254.753906 417.941406 254.183594 415.398438 253.691406 412.839844 C 253.195312 410.28125 252.777344 407.710938 252.433594 405.125 C 252.089844 402.542969 251.824219 399.953125 251.632812 397.351562 C 251.445312 394.753906 251.328125 392.152344 251.292969 389.546875 C 251.253906 386.9375 251.292969 384.335938 251.40625 381.730469 C 251.523438 379.128906 251.714844 376.53125 251.980469 373.9375 C 252.25 371.34375 252.59375 368.761719 253.011719 366.191406 C 253.429688 363.617188 253.925781 361.058594 254.496094 358.515625 C 255.066406 355.972656 255.710938 353.449219 256.425781 350.945312 C 257.144531 348.4375 257.9375 345.957031 258.800781 343.5 C 259.664062 341.039062 260.597656 338.609375 261.605469 336.203125 C 262.609375 333.800781 263.6875 331.425781 264.832031 329.085938 C 265.976562 326.746094 267.191406 324.441406 268.472656 322.171875 C 269.753906 319.902344 271.101562 317.671875 272.511719 315.480469 C 273.925781 313.292969 275.398438 311.144531 276.9375 309.039062 C 278.476562 306.9375 280.074219 304.878906 281.734375 302.871094 C 283.394531 300.859375 285.109375 298.898438 286.882812 296.992188 C 288.660156 295.082031 290.488281 293.226562 292.371094 291.425781 C 294.253906 289.625 296.1875 287.878906 298.171875 286.191406 C 300.160156 284.503906 302.191406 282.875 304.273438 281.304688 C 306.355469 279.738281 308.480469 278.230469 310.648438 276.785156 C 312.820312 275.34375 315.03125 273.964844 317.28125 272.648438 C 319.53125 271.335938 321.816406 270.089844 324.140625 268.910156 C 326.464844 267.730469 328.824219 266.621094 331.210938 265.578125 C 333.601562 264.539062 336.019531 263.566406 338.464844 262.667969 C 340.910156 261.769531 343.378906 260.941406 345.875 260.1875 C 348.371094 259.433594 350.882812 258.753906 353.417969 258.148438 C 355.953125 257.539062 358.503906 257.007812 361.070312 256.550781 C 363.636719 256.09375 366.210938 255.714844 368.800781 255.410156 C 371.390625 255.101562 373.984375 254.875 376.585938 254.722656 C 379.1875 254.570312 381.792969 254.492188 384.398438 254.492188 C 387.003906 254.492188 389.609375 254.570312 392.210938 254.722656 C 394.8125 254.875 397.40625 255.101562 399.992188 255.410156 C 402.582031 255.714844 405.160156 256.09375 407.726562 256.550781 C 410.289062 257.007812 412.839844 257.539062 415.375 258.148438 C 417.910156 258.753906 420.425781 259.433594 422.917969 260.1875 C 425.414062 260.941406 427.882812 261.769531 430.332031 262.667969 C 432.777344 263.566406 435.195312 264.539062 437.582031 265.578125 C 439.972656 266.621094 442.328125 267.730469 444.652344 268.910156 C 446.976562 270.089844 449.265625 271.335938 451.515625 272.648438 C 453.765625 273.964844 455.976562 275.34375 458.144531 276.785156 C 460.316406 278.230469 462.441406 279.738281 464.523438 281.304688 C 466.601562 282.875 468.636719 284.503906 470.621094 286.191406 C 472.609375 287.878906 474.542969 289.625 476.425781 291.425781 C 478.308594 293.226562 480.136719 295.082031 481.910156 296.992188 C 483.683594 298.898438 485.402344 300.859375 487.0625 302.871094 C 488.71875 304.878906 490.316406 306.9375 491.855469 309.039062 C 493.394531 311.144531 494.871094 313.292969 496.28125 315.480469 C 497.695312 317.671875 499.039062 319.902344 500.320312 322.171875 C 501.601562 324.441406 502.816406 326.746094 503.960938 329.085938 C 505.109375 331.425781 506.183594 333.800781 507.191406 336.203125 C 508.195312 338.609375 509.132812 341.039062 509.996094 343.5 C 510.859375 345.957031 511.648438 348.4375 512.367188 350.945312 C 513.085938 353.449219 513.730469 355.972656 514.300781 358.515625 C 514.867188 361.058594 515.363281 363.617188 515.78125 366.191406 C 516.203125 368.761719 516.546875 371.34375 516.8125 373.9375 C 517.082031 376.53125 517.273438 379.128906 517.386719 381.730469 C 517.503906 384.335938 517.542969 386.9375 517.503906 389.546875 C 517.464844 392.152344 517.351562 394.753906 517.160156 397.351562 C 516.96875 399.953125 516.703125 402.542969 516.359375 405.125 C 516.019531 407.710938 515.597656 410.28125 515.105469 412.839844 C 514.613281 415.398438 514.042969 417.941406 513.398438 420.46875 C 512.757812 422.992188 512.039062 425.496094 511.25 427.980469 C 510.460938 430.464844 509.597656 432.921875 508.660156 435.355469 C 507.726562 437.789062 506.722656 440.191406 505.644531 442.566406 C 504.570312 444.9375 503.425781 447.277344 502.210938 449.585938 C 501 451.890625 499.71875 454.160156 498.371094 456.390625 C 497.027344 458.625 495.617188 460.8125 494.140625 462.960938 C 492.664062 465.109375 491.128906 467.214844 489.53125 469.273438 C 487.929688 471.328125 486.273438 473.339844 484.554688 475.300781 C 482.839844 477.261719 481.066406 479.171875 479.238281 481.027344 C 477.410156 482.882812 475.527344 484.683594 473.59375 486.429688 C 471.660156 488.175781 469.675781 489.867188 467.640625 491.496094 C 465.605469 493.125 463.527344 494.691406 461.402344 496.199219 C 459.273438 497.707031 457.105469 499.152344 454.894531 500.53125 C 452.683594 501.914062 450.4375 503.226562 448.148438 504.476562 C 445.859375 505.722656 443.539062 506.902344 441.179688 508.015625 C 438.824219 509.125 436.4375 510.167969 434.015625 511.140625 C 431.597656 512.109375 429.15625 513.011719 426.683594 513.839844 Z M 426.683594 513.875 " fill-opacity="1" fill-rule="evenodd"/></g></svg>