<svg xmlns="http://www.w3.org/2000/svg" xmlns:xlink="http://www.w3.org/1999/xlink" width="1024" zoomAndPan="magnify" viewBox="0 0 768 767.999994" height="1024" preserveAspectRatio="xMidYMid meet" version="1.0"><defs><clipPath id="47d3e68326"><path d="M 230.398438 230.398438 L 537.898438 230.398438 L 537.898438 537.898438 L 230.398438 537.898438 Z M 230.398438 230.398438 " clip-rule="nonzero"/></clipPath></defs><g clip-path="url(#47d3e68326)"><path fill="#0277b5" d="M 512.210938 230.398438 L 256.242188 230.398438 C 242.089844 230.398438 230.707031 241.9375 230.707031 255.933594 L 230.707031 512.363281 C 230.707031 526.515625 242.246094 537.898438 256.242188 537.898438 L 512.058594 537.898438 C 526.210938 537.898438 537.59375 526.363281 537.59375 512.363281 L 537.59375 255.933594 C 537.746094 241.9375 526.363281 230.398438 512.210938 230.398438 Z M 321.621094 484.0625 L 276.242188 484.0625 L 276.242188 347.769531 L 321.621094 347.769531 Z M 298.851562 331.308594 C 284.546875 331.308594 273.011719 319.773438 273.011719 305.46875 C 273.011719 291.160156 284.546875 279.625 298.851562 279.625 C 313.160156 279.625 324.695312 291.160156 324.695312 305.46875 C 324.695312 319.773438 313.160156 331.308594 298.851562 331.308594 Z M 492.367188 484.0625 L 446.835938 484.0625 L 445.757812 403.148438 C 445.757812 403.148438 446.835938 381.613281 423.300781 381.765625 C 399.761719 381.917969 396.53125 403.148438 396.53125 403.148438 L 396.53125 484.0625 L 350.691406 484.0625 L 350.691406 347.769531 L 394.6875 347.769531 L 394.6875 366.535156 C 394.6875 366.535156 396.53125 360.382812 406.6875 353.152344 C 416.839844 345.925781 433.605469 344.386719 440.835938 344.695312 C 448.066406 345 457.910156 343.769531 474.371094 355.152344 C 492.058594 367.304688 492.519531 399.148438 492.519531 399.148438 Z M 492.367188 484.0625 " fill-opacity="1" fill-rule="nonzero"/></g></svg>